<svg width="473" height="473" viewBox="0 0 473 473" fill="none" xmlns="http://www.w3.org/2000/svg">
<path d="M236.5 74.5L151.615 155.352M236.5 74.5L122.25 41M236.5 74.5L265.865 188.852M236.5 74.5L350.75 108M151.615 155.352L66.7305 236.204M151.615 155.352L122.25 41M151.615 155.352L37.3652 121.852M151.615 155.352L180.98 269.704M151.615 155.352L265.865 188.852M66.7305 236.204L37.3652 121.852M66.7305 236.204L180.98 269.704M66.7305 236.204L96.0957 350.556M122.25 41L8 7.5L37.3652 121.852M122.25 41L37.3652 121.852M295.23 303.204L180.98 269.704M295.23 303.204L265.865 188.852M295.23 303.204L380.115 222.352M295.23 303.204L210.346 384.056M180.98 269.704L265.865 188.852M180.98 269.704L210.346 384.056M180.98 269.704L96.0957 350.556M265.865 188.852L350.75 108M265.865 188.852L380.115 222.352M350.75 108L465 141.5L380.115 222.352M350.75 108L380.115 222.352M210.346 384.056L125.461 464.908L96.0957 350.556M210.346 384.056L96.0957 350.556" stroke="white" stroke-width="15" stroke-linecap="round" stroke-linejoin="round"/>
</svg>
